<svg width="24" height="24" viewBox="0 0 24 24" fill="none" xmlns="http://www.w3.org/2000/svg">
<path d="M1.5 3.5C1.5 4.03043 1.71071 4.53914 2.08579 4.91421C2.46086 5.28929 2.96957 5.5 3.5 5.5C4.03043 5.5 4.53914 5.28929 4.91421 4.91421C5.28929 4.53914 5.5 4.03043 5.5 3.5C5.5 2.96957 5.28929 2.46086 4.91421 2.08579C4.53914 1.71071 4.03043 1.5 3.5 1.5C2.96957 1.5 2.46086 1.71071 2.08579 2.08579C1.71071 2.46086 1.5 2.96957 1.5 3.5Z" stroke="white" stroke-opacity="0.68" stroke-linejoin="round"/>
<path d="M1.5 22.5V8.5H5.5V22.5H1.5ZM8 8.5V22.5H12V15.592C12 14.5 13 12.5 15.895 12.5C17.538 12.5 18.5 13.345 18.5 15V22.5H22.5V15C22.5 13.691 22.188 12.063 21.106 10.723C19.962 9.306 18.193 8.5 15.896 8.5C14.383 8.5 13.061 9.115 12 9.866V8.5H8Z" stroke="white" stroke-opacity="0.68" stroke-linejoin="round"/>
</svg>
