<svg width="32" height="32" viewBox="0 0 32 32" fill="none" xmlns="http://www.w3.org/2000/svg">
<path d="M26.6663 13.3333C26.6663 19.224 15.9997 29.3333 15.9997 29.3333C15.9997 29.3333 5.33301 19.224 5.33301 13.3333C5.33301 10.5043 6.45681 7.79124 8.4572 5.79085C10.4576 3.79046 13.1707 2.66666 15.9997 2.66666C18.8287 2.66666 21.5418 3.79046 23.5421 5.79085C25.5425 7.79124 26.6663 10.5043 26.6663 13.3333Z" stroke="white" stroke-opacity="0.52" stroke-width="2.625"/>
<path d="M15.9993 14.6667C16.353 14.6667 16.6921 14.5262 16.9422 14.2761C17.1922 14.0261 17.3327 13.687 17.3327 13.3333C17.3327 12.9797 17.1922 12.6406 16.9422 12.3905C16.6921 12.1405 16.353 12 15.9993 12C15.6457 12 15.3066 12.1405 15.0565 12.3905C14.8065 12.6406 14.666 12.9797 14.666 13.3333C14.666 13.687 14.8065 14.0261 15.0565 14.2761C15.3066 14.5262 15.6457 14.6667 15.9993 14.6667Z" fill="white" fill-opacity="0.52" stroke="white" stroke-opacity="0.52" stroke-width="2.625" stroke-linecap="round" stroke-linejoin="round"/>
</svg>
