<svg width="32" height="32" viewBox="0 0 32 32" fill="none" xmlns="http://www.w3.org/2000/svg">
<path d="M26.0077 10.6133C25.0564 14.3233 23.1256 17.7095 20.4174 20.4177C17.7092 23.1259 14.323 25.0567 10.613 26.008C7.75834 26.7347 5.33301 24.28 5.33301 21.3333V20C5.33301 19.264 5.93167 18.6733 6.66367 18.6C7.87754 18.4793 9.0691 18.1927 10.205 17.748L12.2317 19.7747C15.5315 18.1928 18.1925 15.5318 19.7743 12.232L17.7477 10.2053C18.1928 9.0695 18.4799 7.87793 18.601 6.66401C18.673 5.93068 19.2637 5.33334 19.9997 5.33334H21.333C24.2797 5.33334 26.7343 7.75868 26.0077 10.6133Z" stroke="white" stroke-opacity="0.52" stroke-width="1.75" stroke-linecap="round" stroke-linejoin="round"/>
</svg>
