<svg width="32" height="32" viewBox="0 0 32 32" fill="none" xmlns="http://www.w3.org/2000/svg">
<path d="M22.6663 22C20.3463 24.32 15.001 22.3427 12.329 19.6707C9.65697 16.9987 7.67964 11.6533 9.99964 9.33333C10.6716 8.66133 11.597 8.58133 12.1623 8.608C12.489 8.62267 12.7716 8.81467 12.9623 9.08133L14.2316 10.86C14.4149 11.1168 14.5011 11.4304 14.475 11.7448C14.4489 12.0593 14.3121 12.3542 14.089 12.5773L12.8876 13.7787C13.109 14.4453 13.821 16.0453 14.8876 17.112C15.9543 18.1787 17.5543 18.8907 18.221 19.112L19.4223 17.912C19.6452 17.6887 19.9401 17.5516 20.2546 17.5253C20.569 17.4989 20.8826 17.5849 21.1396 17.768L22.9183 19.0373C23.185 19.228 23.377 19.5107 23.3916 19.8373C23.4183 20.4027 23.3383 21.328 22.6663 22Z" stroke="white" stroke-opacity="0.52" stroke-width="1.75" stroke-linejoin="round"/>
<path d="M16 30C23.732 30 30 23.732 30 16C30 8.268 23.732 2 16 2C8.268 2 2 8.268 2 16C2 18.5493 2.68133 20.9413 3.87333 23L2.7 29.3L9 28.1267C11.1273 29.3575 13.5423 30.0039 16 30Z" stroke="white" stroke-opacity="0.52" stroke-width="1.75" stroke-linejoin="round"/>
</svg>
